<mxfile host="app.diagrams.net" modified="2023-10-03T07:15:25.344Z" agent="Mozilla/5.0 (Windows NT 10.0; Win64; x64) AppleWebKit/537.36 (KHTML, like Gecko) Chrome/117.0.0.0 Safari/537.36" etag="f1F9chRBxEfFUZoBIO5J" version="22.0.0" type="google">
  <diagram id="JSDDQRz3V1KPSI_Ny5Y9" name="Page-1">
    <mxGraphModel dx="2400" dy="1886" grid="1" gridSize="10" guides="1" tooltips="1" connect="1" arrows="1" fold="1" page="1" pageScale="1" pageWidth="850" pageHeight="1100" math="0" shadow="0">
      <root>
        <mxCell id="0" />
        <mxCell id="1" parent="0" />
        <mxCell id="pfKTipFEEnKFo6_xhmQf-56" style="edgeStyle=orthogonalEdgeStyle;rounded=0;orthogonalLoop=1;jettySize=auto;html=1;exitX=1;exitY=0.5;exitDx=0;exitDy=0;entryX=0;entryY=0.25;entryDx=0;entryDy=0;" parent="1" source="pfKTipFEEnKFo6_xhmQf-25" target="pfKTipFEEnKFo6_xhmQf-53" edge="1">
          <mxGeometry relative="1" as="geometry" />
        </mxCell>
        <mxCell id="pfKTipFEEnKFo6_xhmQf-25" value="Have" style="shape=rhombus;perimeter=rhombusPerimeter;whiteSpace=wrap;html=1;align=center;fillColor=#009900;" parent="1" vertex="1">
          <mxGeometry x="-110" y="165" width="120" height="60" as="geometry" />
        </mxCell>
        <mxCell id="pfKTipFEEnKFo6_xhmQf-68" style="edgeStyle=orthogonalEdgeStyle;rounded=0;orthogonalLoop=1;jettySize=auto;html=1;exitX=0.75;exitY=0;exitDx=0;exitDy=0;entryX=0;entryY=0.5;entryDx=0;entryDy=0;" parent="1" source="pfKTipFEEnKFo6_xhmQf-50" target="pfKTipFEEnKFo6_xhmQf-67" edge="1">
          <mxGeometry relative="1" as="geometry" />
        </mxCell>
        <mxCell id="pfKTipFEEnKFo6_xhmQf-79" style="edgeStyle=orthogonalEdgeStyle;rounded=0;orthogonalLoop=1;jettySize=auto;html=1;exitX=0;exitY=0.5;exitDx=0;exitDy=0;entryX=0.5;entryY=0;entryDx=0;entryDy=0;" parent="1" source="pfKTipFEEnKFo6_xhmQf-50" target="pfKTipFEEnKFo6_xhmQf-78" edge="1">
          <mxGeometry relative="1" as="geometry" />
        </mxCell>
        <mxCell id="pfKTipFEEnKFo6_xhmQf-50" value="Citizen" style="swimlane;childLayout=stackLayout;horizontal=1;startSize=50;horizontalStack=0;rounded=1;fontSize=14;fontStyle=0;strokeWidth=2;resizeParent=0;resizeLast=1;shadow=0;dashed=0;align=center;arcSize=4;whiteSpace=wrap;html=1;fillColor=#4AFFA4;" parent="1" vertex="1">
          <mxGeometry x="-140" y="-110" width="160" height="190" as="geometry" />
        </mxCell>
        <mxCell id="pfKTipFEEnKFo6_xhmQf-51" value="&lt;div&gt;&lt;u&gt;ID&lt;br&gt;&lt;/u&gt;&lt;/div&gt;&lt;div&gt;Address&lt;/div&gt;&lt;div&gt;Salary&lt;/div&gt;&lt;div&gt;Name&lt;/div&gt;&lt;div&gt;Blood Group&lt;br&gt;&lt;/div&gt;&lt;div&gt;DOB&lt;/div&gt;&lt;div&gt;Profession&lt;br&gt;&lt;/div&gt;" style="align=left;strokeColor=none;fillColor=none;spacingLeft=4;fontSize=12;verticalAlign=top;resizable=0;rotatable=0;part=1;html=1;" parent="pfKTipFEEnKFo6_xhmQf-50" vertex="1">
          <mxGeometry y="50" width="160" height="140" as="geometry" />
        </mxCell>
        <mxCell id="pfKTipFEEnKFo6_xhmQf-52" style="edgeStyle=orthogonalEdgeStyle;rounded=0;orthogonalLoop=1;jettySize=auto;html=1;exitX=0.5;exitY=1;exitDx=0;exitDy=0;entryX=0.5;entryY=0;entryDx=0;entryDy=0;" parent="1" source="pfKTipFEEnKFo6_xhmQf-51" target="pfKTipFEEnKFo6_xhmQf-25" edge="1">
          <mxGeometry relative="1" as="geometry" />
        </mxCell>
        <mxCell id="pfKTipFEEnKFo6_xhmQf-53" value="&lt;div&gt;Driver License&lt;/div&gt;" style="swimlane;childLayout=stackLayout;horizontal=1;startSize=50;horizontalStack=0;rounded=1;fontSize=14;fontStyle=0;strokeWidth=2;resizeParent=0;resizeLast=1;shadow=0;dashed=0;align=center;arcSize=4;whiteSpace=wrap;html=1;fillColor=#FFB570;" parent="1" vertex="1">
          <mxGeometry x="137" y="190" width="160" height="120" as="geometry" />
        </mxCell>
        <mxCell id="pfKTipFEEnKFo6_xhmQf-54" value="&lt;div&gt;License No&lt;/div&gt;&lt;div&gt;License Issue Date&lt;/div&gt;&lt;div&gt;&amp;nbsp; License Expire Date&lt;/div&gt;" style="align=left;strokeColor=none;fillColor=none;spacingLeft=4;fontSize=12;verticalAlign=top;resizable=0;rotatable=0;part=1;html=1;" parent="pfKTipFEEnKFo6_xhmQf-53" vertex="1">
          <mxGeometry y="50" width="160" height="70" as="geometry" />
        </mxCell>
        <mxCell id="pfKTipFEEnKFo6_xhmQf-57" value="Hospital" style="swimlane;childLayout=stackLayout;horizontal=1;startSize=50;horizontalStack=0;rounded=1;fontSize=14;fontStyle=0;strokeWidth=2;resizeParent=0;resizeLast=1;shadow=0;dashed=0;align=center;arcSize=4;whiteSpace=wrap;html=1;fillColor=#00FFFF;" parent="1" vertex="1">
          <mxGeometry x="260" y="-130" width="150" height="180" as="geometry" />
        </mxCell>
        <mxCell id="pfKTipFEEnKFo6_xhmQf-58" value="&lt;div&gt;Name Of Hospital&lt;/div&gt;&lt;div&gt;Location&lt;/div&gt;&lt;div&gt;Year Of Establishment&lt;/div&gt;&lt;div&gt;Time of admission&lt;/div&gt;&lt;div&gt;Resson of admission&lt;br&gt;&lt;/div&gt;" style="align=left;strokeColor=none;fillColor=none;spacingLeft=4;fontSize=12;verticalAlign=top;resizable=0;rotatable=0;part=1;html=1;" parent="pfKTipFEEnKFo6_xhmQf-57" vertex="1">
          <mxGeometry y="50" width="150" height="130" as="geometry" />
        </mxCell>
        <mxCell id="pfKTipFEEnKFo6_xhmQf-61" style="edgeStyle=orthogonalEdgeStyle;rounded=0;orthogonalLoop=1;jettySize=auto;html=1;exitX=1;exitY=0.5;exitDx=0;exitDy=0;entryX=0;entryY=0.5;entryDx=0;entryDy=0;" parent="1" source="pfKTipFEEnKFo6_xhmQf-59" target="pfKTipFEEnKFo6_xhmQf-58" edge="1">
          <mxGeometry relative="1" as="geometry" />
        </mxCell>
        <mxCell id="pfKTipFEEnKFo6_xhmQf-59" value="&lt;div&gt;Admission&lt;/div&gt;" style="shape=rhombus;perimeter=rhombusPerimeter;whiteSpace=wrap;html=1;align=center;fillColor=#999900;" parent="1" vertex="1">
          <mxGeometry x="80" y="-30" width="120" height="60" as="geometry" />
        </mxCell>
        <mxCell id="pfKTipFEEnKFo6_xhmQf-60" style="edgeStyle=orthogonalEdgeStyle;rounded=0;orthogonalLoop=1;jettySize=auto;html=1;exitX=1;exitY=0.5;exitDx=0;exitDy=0;entryX=0;entryY=0.5;entryDx=0;entryDy=0;" parent="1" source="pfKTipFEEnKFo6_xhmQf-51" target="pfKTipFEEnKFo6_xhmQf-59" edge="1">
          <mxGeometry relative="1" as="geometry" />
        </mxCell>
        <mxCell id="pfKTipFEEnKFo6_xhmQf-62" value="Book" style="swimlane;childLayout=stackLayout;horizontal=1;startSize=50;horizontalStack=0;rounded=1;fontSize=14;fontStyle=0;strokeWidth=2;resizeParent=0;resizeLast=1;shadow=0;dashed=0;align=center;arcSize=4;whiteSpace=wrap;html=1;fillColor=#00FFFF;" parent="1" vertex="1">
          <mxGeometry x="502" y="88" width="160" height="120" as="geometry" />
        </mxCell>
        <mxCell id="pfKTipFEEnKFo6_xhmQf-63" value="&lt;div&gt;title&lt;/div&gt;&lt;div&gt;Price,&lt;br&gt;&lt;/div&gt;&lt;div&gt;area of study&lt;/div&gt;&lt;div&gt;&lt;br&gt;&lt;/div&gt;" style="align=left;strokeColor=none;fillColor=none;spacingLeft=4;fontSize=12;verticalAlign=top;resizable=0;rotatable=0;part=1;html=1;" parent="pfKTipFEEnKFo6_xhmQf-62" vertex="1">
          <mxGeometry y="50" width="160" height="70" as="geometry" />
        </mxCell>
        <mxCell id="pfKTipFEEnKFo6_xhmQf-64" value="Author" style="swimlane;childLayout=stackLayout;horizontal=1;startSize=50;horizontalStack=0;rounded=1;fontSize=14;fontStyle=0;strokeWidth=2;resizeParent=0;resizeLast=1;shadow=0;dashed=0;align=center;arcSize=4;whiteSpace=wrap;html=1;fillColor=#FFCCE6;" parent="1" vertex="1">
          <mxGeometry x="480" y="-200" width="160" height="120" as="geometry" />
        </mxCell>
        <mxCell id="pfKTipFEEnKFo6_xhmQf-65" value="&lt;br&gt;&lt;div&gt;Country of Origin&lt;br&gt;&lt;/div&gt;" style="align=left;strokeColor=none;fillColor=none;spacingLeft=4;fontSize=12;verticalAlign=top;resizable=0;rotatable=0;part=1;html=1;" parent="pfKTipFEEnKFo6_xhmQf-64" vertex="1">
          <mxGeometry y="50" width="160" height="70" as="geometry" />
        </mxCell>
        <mxCell id="pfKTipFEEnKFo6_xhmQf-67" value="Occupation" style="shape=rhombus;perimeter=rhombusPerimeter;whiteSpace=wrap;html=1;align=center;fillColor=#FF9933;" parent="1" vertex="1">
          <mxGeometry x="90" y="-200" width="120" height="60" as="geometry" />
        </mxCell>
        <mxCell id="pfKTipFEEnKFo6_xhmQf-69" style="edgeStyle=orthogonalEdgeStyle;rounded=0;orthogonalLoop=1;jettySize=auto;html=1;exitX=1;exitY=0.5;exitDx=0;exitDy=0;entryX=0.563;entryY=0;entryDx=0;entryDy=0;entryPerimeter=0;" parent="1" source="pfKTipFEEnKFo6_xhmQf-67" target="pfKTipFEEnKFo6_xhmQf-64" edge="1">
          <mxGeometry relative="1" as="geometry" />
        </mxCell>
        <mxCell id="pfKTipFEEnKFo6_xhmQf-70" value="Book Owner" style="shape=rhombus;perimeter=rhombusPerimeter;whiteSpace=wrap;html=1;align=center;fillColor=#3399FF;" parent="1" vertex="1">
          <mxGeometry x="510" y="-20" width="120" height="60" as="geometry" />
        </mxCell>
        <mxCell id="pfKTipFEEnKFo6_xhmQf-71" style="edgeStyle=orthogonalEdgeStyle;rounded=0;orthogonalLoop=1;jettySize=auto;html=1;exitX=0.5;exitY=1;exitDx=0;exitDy=0;entryX=0.5;entryY=0;entryDx=0;entryDy=0;" parent="1" source="pfKTipFEEnKFo6_xhmQf-65" target="pfKTipFEEnKFo6_xhmQf-70" edge="1">
          <mxGeometry relative="1" as="geometry" />
        </mxCell>
        <mxCell id="pfKTipFEEnKFo6_xhmQf-72" style="edgeStyle=orthogonalEdgeStyle;rounded=0;orthogonalLoop=1;jettySize=auto;html=1;exitX=0.5;exitY=1;exitDx=0;exitDy=0;entryX=0.406;entryY=-0.017;entryDx=0;entryDy=0;entryPerimeter=0;" parent="1" source="pfKTipFEEnKFo6_xhmQf-70" target="pfKTipFEEnKFo6_xhmQf-62" edge="1">
          <mxGeometry relative="1" as="geometry" />
        </mxCell>
        <mxCell id="pfKTipFEEnKFo6_xhmQf-73" value="Reader&amp;nbsp; " style="swimlane;childLayout=stackLayout;horizontal=1;startSize=50;horizontalStack=0;rounded=1;fontSize=14;fontStyle=0;strokeWidth=2;resizeParent=0;resizeLast=1;shadow=0;dashed=0;align=center;arcSize=4;whiteSpace=wrap;html=1;fillColor=#CCE5FF;" parent="1" vertex="1">
          <mxGeometry x="-280" y="238" width="160" height="120" as="geometry" />
        </mxCell>
        <mxCell id="pfKTipFEEnKFo6_xhmQf-74" value="&lt;div&gt;Borrowing Date&lt;/div&gt;&lt;div&gt;Return Date&lt;br&gt;&lt;/div&gt;" style="align=left;strokeColor=none;fillColor=none;spacingLeft=4;fontSize=12;verticalAlign=top;resizable=0;rotatable=0;part=1;html=1;" parent="pfKTipFEEnKFo6_xhmQf-73" vertex="1">
          <mxGeometry y="50" width="160" height="70" as="geometry" />
        </mxCell>
        <mxCell id="pfKTipFEEnKFo6_xhmQf-78" value="Reader" style="shape=rhombus;perimeter=rhombusPerimeter;whiteSpace=wrap;html=1;align=center;fillColor=#FF9933;" parent="1" vertex="1">
          <mxGeometry x="-378" y="33" width="120" height="60" as="geometry" />
        </mxCell>
        <mxCell id="pfKTipFEEnKFo6_xhmQf-80" style="edgeStyle=orthogonalEdgeStyle;rounded=0;orthogonalLoop=1;jettySize=auto;html=1;exitX=0.5;exitY=1;exitDx=0;exitDy=0;entryX=0.375;entryY=0.008;entryDx=0;entryDy=0;entryPerimeter=0;" parent="1" source="pfKTipFEEnKFo6_xhmQf-78" target="pfKTipFEEnKFo6_xhmQf-73" edge="1">
          <mxGeometry relative="1" as="geometry" />
        </mxCell>
        <mxCell id="pfKTipFEEnKFo6_xhmQf-81" value="&lt;div&gt;Publishers&lt;/div&gt;" style="swimlane;childLayout=stackLayout;horizontal=1;startSize=50;horizontalStack=0;rounded=1;fontSize=14;fontStyle=0;strokeWidth=2;resizeParent=0;resizeLast=1;shadow=0;dashed=0;align=center;arcSize=4;whiteSpace=wrap;html=1;fillColor=#999900;" parent="1" vertex="1">
          <mxGeometry x="350" y="320" width="160" height="120" as="geometry" />
        </mxCell>
        <mxCell id="pfKTipFEEnKFo6_xhmQf-82" value="&lt;div&gt;Established Year&lt;/div&gt;&lt;div&gt;Country Of Origin&lt;/div&gt;&lt;div&gt;Reputation&lt;/div&gt;" style="align=left;strokeColor=none;fillColor=none;spacingLeft=4;fontSize=12;verticalAlign=top;resizable=0;rotatable=0;part=1;html=1;" parent="pfKTipFEEnKFo6_xhmQf-81" vertex="1">
          <mxGeometry y="50" width="160" height="70" as="geometry" />
        </mxCell>
        <mxCell id="pfKTipFEEnKFo6_xhmQf-86" value="Publish" style="shape=rhombus;perimeter=rhombusPerimeter;whiteSpace=wrap;html=1;align=center;fillColor=#007FFF;" parent="1" vertex="1">
          <mxGeometry x="350" y="220" width="120" height="60" as="geometry" />
        </mxCell>
        <mxCell id="pfKTipFEEnKFo6_xhmQf-87" style="edgeStyle=orthogonalEdgeStyle;rounded=0;orthogonalLoop=1;jettySize=auto;html=1;exitX=0.5;exitY=0;exitDx=0;exitDy=0;entryX=0.433;entryY=1.05;entryDx=0;entryDy=0;entryPerimeter=0;" parent="1" source="pfKTipFEEnKFo6_xhmQf-81" target="pfKTipFEEnKFo6_xhmQf-86" edge="1">
          <mxGeometry relative="1" as="geometry" />
        </mxCell>
        <mxCell id="pfKTipFEEnKFo6_xhmQf-88" style="edgeStyle=orthogonalEdgeStyle;rounded=0;orthogonalLoop=1;jettySize=auto;html=1;exitX=0.5;exitY=0;exitDx=0;exitDy=0;entryX=0.456;entryY=1;entryDx=0;entryDy=0;entryPerimeter=0;" parent="1" source="pfKTipFEEnKFo6_xhmQf-86" target="pfKTipFEEnKFo6_xhmQf-63" edge="1">
          <mxGeometry relative="1" as="geometry" />
        </mxCell>
        <mxCell id="pfKTipFEEnKFo6_xhmQf-89" value="M" style="text;html=1;align=center;verticalAlign=middle;resizable=0;points=[];autosize=1;strokeColor=none;fillColor=none;" parent="1" vertex="1">
          <mxGeometry x="227" y="-40" width="30" height="30" as="geometry" />
        </mxCell>
        <mxCell id="pfKTipFEEnKFo6_xhmQf-90" value="1" style="text;html=1;align=center;verticalAlign=middle;resizable=0;points=[];autosize=1;strokeColor=none;fillColor=none;" parent="1" vertex="1">
          <mxGeometry x="17" y="-22" width="30" height="30" as="geometry" />
        </mxCell>
        <mxCell id="pfKTipFEEnKFo6_xhmQf-91" value="&lt;div&gt;1&lt;/div&gt;" style="text;html=1;align=center;verticalAlign=middle;resizable=0;points=[];autosize=1;strokeColor=none;fillColor=none;" parent="1" vertex="1">
          <mxGeometry x="-163" y="-42" width="30" height="30" as="geometry" />
        </mxCell>
        <mxCell id="pfKTipFEEnKFo6_xhmQf-92" value="1" style="text;html=1;align=center;verticalAlign=middle;resizable=0;points=[];autosize=1;strokeColor=none;fillColor=none;" parent="1" vertex="1">
          <mxGeometry x="-363" y="158" width="30" height="30" as="geometry" />
        </mxCell>
        <mxCell id="pfKTipFEEnKFo6_xhmQf-93" value="1" style="text;html=1;align=center;verticalAlign=middle;resizable=0;points=[];autosize=1;strokeColor=none;fillColor=none;" parent="1" vertex="1">
          <mxGeometry x="-60" y="80" width="30" height="30" as="geometry" />
        </mxCell>
        <mxCell id="pfKTipFEEnKFo6_xhmQf-94" value="1" style="text;html=1;align=center;verticalAlign=middle;resizable=0;points=[];autosize=1;strokeColor=none;fillColor=none;" parent="1" vertex="1">
          <mxGeometry x="37" y="138" width="30" height="30" as="geometry" />
        </mxCell>
        <mxCell id="pfKTipFEEnKFo6_xhmQf-95" value="1" style="text;html=1;align=center;verticalAlign=middle;resizable=0;points=[];autosize=1;strokeColor=none;fillColor=none;" parent="1" vertex="1">
          <mxGeometry x="427" y="288" width="30" height="30" as="geometry" />
        </mxCell>
        <mxCell id="pfKTipFEEnKFo6_xhmQf-96" value="M" style="text;html=1;align=center;verticalAlign=middle;resizable=0;points=[];autosize=1;strokeColor=none;fillColor=none;" parent="1" vertex="1">
          <mxGeometry x="547" y="228" width="30" height="30" as="geometry" />
        </mxCell>
        <mxCell id="pfKTipFEEnKFo6_xhmQf-97" value="M" style="text;html=1;align=center;verticalAlign=middle;resizable=0;points=[];autosize=1;strokeColor=none;fillColor=none;" parent="1" vertex="1">
          <mxGeometry x="567" y="-82" width="30" height="30" as="geometry" />
        </mxCell>
        <mxCell id="pfKTipFEEnKFo6_xhmQf-98" value="M" style="text;html=1;align=center;verticalAlign=middle;resizable=0;points=[];autosize=1;strokeColor=none;fillColor=none;" parent="1" vertex="1">
          <mxGeometry x="587" y="48" width="30" height="30" as="geometry" />
        </mxCell>
        <mxCell id="pfKTipFEEnKFo6_xhmQf-99" value="1" style="text;html=1;align=center;verticalAlign=middle;resizable=0;points=[];autosize=1;strokeColor=none;fillColor=none;" parent="1" vertex="1">
          <mxGeometry x="-53" y="-152" width="30" height="30" as="geometry" />
        </mxCell>
        <mxCell id="pfKTipFEEnKFo6_xhmQf-100" value="1" style="text;html=1;align=center;verticalAlign=middle;resizable=0;points=[];autosize=1;strokeColor=none;fillColor=none;" parent="1" vertex="1">
          <mxGeometry x="527" y="-272" width="30" height="30" as="geometry" />
        </mxCell>
        <mxCell id="pfKTipFEEnKFo6_xhmQf-101" style="edgeStyle=orthogonalEdgeStyle;rounded=0;orthogonalLoop=1;jettySize=auto;html=1;exitX=0.5;exitY=1;exitDx=0;exitDy=0;" parent="1" source="pfKTipFEEnKFo6_xhmQf-74" target="pfKTipFEEnKFo6_xhmQf-102" edge="1">
          <mxGeometry relative="1" as="geometry">
            <mxPoint x="90" y="500" as="targetPoint" />
          </mxGeometry>
        </mxCell>
        <mxCell id="pfKTipFEEnKFo6_xhmQf-102" value="Reader" style="shape=rhombus;perimeter=rhombusPerimeter;whiteSpace=wrap;html=1;align=center;fillColor=#1966FF;" parent="1" vertex="1">
          <mxGeometry x="17" y="430" width="120" height="60" as="geometry" />
        </mxCell>
        <mxCell id="pfKTipFEEnKFo6_xhmQf-103" style="edgeStyle=orthogonalEdgeStyle;rounded=0;orthogonalLoop=1;jettySize=auto;html=1;exitX=1;exitY=0.5;exitDx=0;exitDy=0;entryX=0.85;entryY=1;entryDx=0;entryDy=0;entryPerimeter=0;" parent="1" source="pfKTipFEEnKFo6_xhmQf-102" target="pfKTipFEEnKFo6_xhmQf-63" edge="1">
          <mxGeometry relative="1" as="geometry" />
        </mxCell>
        <mxCell id="pfKTipFEEnKFo6_xhmQf-104" value="1" style="text;html=1;align=center;verticalAlign=middle;resizable=0;points=[];autosize=1;strokeColor=none;fillColor=none;" parent="1" vertex="1">
          <mxGeometry x="-333" y="308" width="30" height="30" as="geometry" />
        </mxCell>
        <mxCell id="pfKTipFEEnKFo6_xhmQf-105" value="M" style="text;html=1;align=center;verticalAlign=middle;resizable=0;points=[];autosize=1;strokeColor=none;fillColor=none;" parent="1" vertex="1">
          <mxGeometry x="637" y="208" width="30" height="30" as="geometry" />
        </mxCell>
      </root>
    </mxGraphModel>
  </diagram>
</mxfile>
